<?xml version="1.0" standalone="no"?>
<!DOCTYPE svg PUBLIC "-//W3C//DTD SVG 20010904//EN"
 "http://www.w3.org/TR/2001/REC-SVG-20010904/DTD/svg10.dtd">
<svg version="1.0" xmlns="http://www.w3.org/2000/svg"
 width="512.000000pt" height="512.000000pt" viewBox="0 0 512.000000 512.000000"
 preserveAspectRatio="xMidYMid meet">

<g transform="translate(0.000000,512.000000) scale(0.100000,-0.100000)"
fill="#1c1c1c" stroke="none">
<path d="M2349 5070 c-384 -30 -770 -181 -1121 -437 -124 -91 -159 -138 -144
-195 15 -57 21 -55 99 23 93 95 219 189 356 268 121 69 341 171 369 171 30 0
51 -32 68 -106 35 -150 196 -750 207 -774 24 -50 62 -55 412 -55 371 1 391 4
413 71 20 57 188 699 202 767 15 73 40 101 83 93 44 -9 317 -143 417 -205 112
-70 232 -164 304 -241 56 -58 60 -61 73 -44 54 73 3 140 -222 291 -275 185
-603 316 -898 358 -124 18 -473 27 -618 15z"/>
<path d="M1027 4413 c-100 -565 -109 -640 -127 -1053 -8 -197 -15 -265 -28
-300 -21 -55 -23 -341 -5 -810 9 -264 14 -313 31 -363 30 -82 40 -145 57 -356
9 -102 21 -213 29 -246 58 -265 99 -459 120 -568 29 -151 40 -168 155 -256
240 -183 635 -409 649 -372 4 12 -31 97 -83 205 l-46 93 -144 103 c-166 118
-155 88 -101 275 24 87 31 129 31 200 l0 90 -79 140 c-44 77 -151 281 -239
453 -142 279 -160 321 -168 382 -6 53 -21 95 -64 179 -53 108 -55 113 -55 193
0 53 11 133 30 223 16 77 42 203 58 280 48 226 55 326 42 600 -6 132 -15 377
-20 545 -9 270 -17 371 -33 386 -2 3 -7 -8 -10 -23z"/>
<path d="M4145 4415 c-3 -16 -9 -36 -11 -44 -3 -8 -9 -154 -14 -325 -5 -171
-14 -419 -20 -551 -14 -320 -11 -343 100 -865 19 -85 32 -178 33 -225 1 -79 0
-82 -56 -193 -45 -87 -59 -126 -64 -175 -5 -53 -24 -98 -134 -319 -71 -142
-179 -349 -241 -460 l-113 -203 0 -90 c1 -70 8 -114 32 -200 54 -189 66 -157
-98 -274 -100 -71 -149 -112 -164 -138 -28 -51 -115 -247 -115 -260 0 -66 673
347 762 468 13 17 34 100 63 245 24 120 59 290 79 376 26 114 40 208 51 345
17 215 27 278 56 360 18 50 23 98 32 358 18 465 16 748 -5 815 -13 40 -20 123
-28 310 -6 140 -15 309 -21 375 -9 110 -88 599 -108 670 l-8 30 -8 -30z"/>
<path d="M1200 2928 c-12 -40 -25 -86 -30 -102 -6 -15 -7 -32 -4 -37 9 -16
119 -67 201 -96 67 -22 94 -26 193 -26 63 0 187 10 275 22 319 42 310 40 330
110 l11 36 419 0 419 0 11 -36 c20 -71 16 -70 335 -110 237 -29 364 -28 463 5
80 27 192 79 201 94 5 8 -49 200 -58 210 -5 4 -147 -16 -501 -72 -339 -53
-408 -57 -945 -53 -530 5 -463 -1 -978 81 -119 19 -240 37 -269 40 l-52 7 -21
-73z"/>
<path d="M1140 2026 c0 -31 237 -522 308 -638 23 -38 59 -103 81 -145 22 -43
47 -87 56 -98 15 -19 16 -15 10 68 -18 259 -124 459 -401 760 -30 32 -54 56
-54 53z"/>
<path d="M3955 1928 c-242 -272 -341 -471 -360 -723 -6 -75 -5 -79 10 -60 9
11 33 52 52 90 20 39 66 122 103 185 80 135 305 612 288 610 -2 -1 -43 -46
-93 -102z"/>
<path d="M2099 1181 c-99 -8 -114 -19 -175 -132 -19 -37 -46 -76 -58 -88 l-23
-22 -113 76 c-62 41 -116 75 -121 75 -22 0 -5 -46 29 -79 43 -40 198 -160 216
-167 6 -2 47 42 91 98 121 154 74 143 640 143 508 0 522 -1 578 -54 16 -14 58
-63 95 -108 36 -46 69 -83 73 -83 4 0 34 22 66 48 32 27 78 62 103 79 25 17
53 39 62 49 21 24 34 74 20 74 -6 0 -62 -34 -123 -75 l-113 -75 -24 22 c-13
13 -39 53 -58 89 -56 105 -77 121 -181 130 -101 9 -869 9 -984 0z"/>
<path d="M2471 691 c-13 -24 -31 -28 -175 -41 -65 -6 -130 -16 -144 -21 -29
-11 -312 -236 -318 -254 -6 -15 101 -258 116 -263 6 -2 42 16 79 41 168 112
209 121 551 121 359 1 410 -9 572 -115 42 -28 82 -49 88 -47 15 5 122 248 116
263 -7 19 -294 245 -323 255 -15 5 -80 14 -143 20 -142 13 -158 17 -171 41 -9
17 -22 19 -124 19 -102 0 -115 -2 -124 -19z"/>
</g>
</svg>
